<svg xmlns="http://www.w3.org/2000/svg" viewBox="0 0 60 48"><path d="M49.5 25c-.3 0-.6-.2-.8-.5C46.1 18.2 40 14 33 14c-9.2 0-16.8 7.4-17 16.6 0 .3-.3.5-.6.5s-.6-.1-.9-.1C9.8 31 6 34.8 6 39.5S9.8 48 14.5 48h34C54.8 48 60 42.8 60 36.5c0-6-4.6-11-10.5-11.5zm-1 21h-34C10.9 46 8 43.1 8 39.5s2.9-6.5 6.5-6.5c.8 0 1.5.1 2.2.4l.6.2c.4.2.9-.2.8-.7l-.1-.6V31c0-8.3 6.7-15 15-15 6.4 0 12 4 14.2 10 .2.6.7 1 1.3 1 5.2 0 9.5 4.3 9.5 9.5S53.7 46 48.5 46z"/><path d="M13.7 26c.6 0 1.1-.4 1.3-1 .2-.5-.1-1-.6-1H6.5C4 24 2 22 2 19.5S4 15 6.5 15c.4 0 .8.1 1.3.2l.5.2c.5.1.9-.2.8-.7l-.1-.5V13C9 6.9 13.9 2 20 2c4.8 0 9.1 3.2 10.5 7.7.2.6.7.9 1.3 1 1.1.1 2.1.4 3 .9.6.3 1.2.6 1.9.8l1.2.3c.3.1.6-.3.4-.5-1.3-1.7-3.3-3-5.5-3.3-.3 0-.5-.3-.6-.5C30.1 3.3 25.3 0 20 0 13 0 7.3 5.6 7 12.5c0 .3-.2.5-.5.5C2.9 13 0 15.9 0 19.5S2.9 26 6.5 26h7.2z"/></svg>