<svg xmlns="http://www.w3.org/2000/svg" viewBox="0 0 60 56"><path d="M31 55c0 .6.4 1 1 1s1-.4 1-1V31c0-.6-.4-1-1-1s-1 .4-1 1v24zm-6-6c0 .6.4 1 1 1s1-.4 1-1V35c0-.6-.4-1-1-1s-1 .4-1 1v14zm12-5c0 .6.4 1 1 1s1-.4 1-1v-9c0-.6-.4-1-1-1s-1 .4-1 1v9z"/><path d="M49.5 15c-.3 0-.6-.2-.8-.5C46.1 8.2 40 4 33 4c-4.3 0-8.2 1.6-11.2 4.2-.2.2-.5.4-.8.3-.9-.3-2-.5-3-.5-5.5 0-10 4.5-10 10 0 1.6.4 3.1 1 4.4.1.2.1.5-.1.7C7.1 24.7 6 27 6 29.5c0 4.7 3.8 8.5 8.5 8.5H21c.6 0 1-.4 1-1s-.4-1-1-1h-6.5C10.9 36 8 33.1 8 29.5s2.9-6.5 6.5-6.5c.8 0 1.5.1 2.2.4l.6.2c.4.2.9-.2.8-.7l-.1-.6V21c0-8.3 6.7-15 15-15 6.4 0 12 4 14.2 10 .2.6.7 1 1.3 1 5.2 0 9.5 4.3 9.5 9.5S53.7 36 48.5 36H43c-.6 0-1 .4-1 1s.4 1 1 1h5.5C54.8 38 60 32.8 60 26.5c0-6-4.6-11-10.5-11.5zM16 20.6c0 .3-.3.5-.6.4-.3 0-.6-.1-.9-.1-1.1 0-2.2.2-3.1.6-.2.1-.5 0-.6-.3-.5-1-.8-2.1-.8-3.3 0-4.4 3.6-8 8-8 .5 0 .9 0 1.4.1.2 0 .3.3.1.5-2.1 2.9-3.4 6.4-3.5 10.1zM19 1c0-.6-.4-1-1-1s-1 .4-1 1v4c0 .6.4 1 1 1s1-.4 1-1V1zM6 18c0-.6-.4-1-1-1H1c-.6 0-1 .4-1 1s.4 1 1 1h4c.6 0 1-.4 1-1zm3.5-8.5c.4-.4.4-1 0-1.4L6.7 5.3c-.4-.4-1-.4-1.4 0-.4.4-.4 1 0 1.4l2.8 2.8c.4.4 1 .4 1.4 0z"/></svg>