<svg xmlns="http://www.w3.org/2000/svg" viewBox="0 0 58.7 45.7"><path d="M4.7 29.2v.6c0 .5.5.9 1.1.9h51c.6 0 1.1-.3 1.3-.9.4-1.2.6-2.4.6-3.6 0-6-4.6-11-10.5-11.5-.3 0-.6-.2-.8-.5-2.5-6.3-8.7-10.5-15.7-10.5-3.2 0-6.2.9-8.7 2.4-.2.1-.6.2-.7-.1-1.4-2.8-3.9-4.9-7-5.9l-.5-.1c-.5-.1-.9.2-.9.7v.5c.1.4.1.8.1 1.1C14 8.8 8.8 14 2.3 14H.7c-.5 0-.8.4-.7.9l.2.5c1.1 3.5 3.7 6.2 6.9 7.5.2.1.3.3.2.5-1.6 1.4-2.6 3.5-2.6 5.8zm27-23.5c6.4 0 12 4 14.1 10 .2.6.7 1 1.4 1 5.2 0 9.5 4.3 9.5 9.5 0 .7-.1 1.4-.2 2-.1.3-.3.5-.6.5H7.3c-.3 0-.5-.2-.4-.5.5-3.1 3.2-5.5 6.4-5.5.8 0 1.5.1 2.2.4l.6.2c.4.2.9-.2.8-.7l-.1-.6c-.1-.5-.1-1-.1-1.4 0-8.1 6.8-14.9 15-14.9zM2.9 16.6c-.1-.2 0-.5.2-.5 6.9-.4 12.5-6 12.9-12.9 0-.2.2-.4.4-.3 1.9 1 3.4 2.6 4.2 4.5.1.2 0 .5-.2.7-3.5 3-5.7 7.5-5.8 12.4 0 .3-.3.4-.6.4s-.6-.1-.9-.1c-1.1 0-2.1.2-3 .6-.3.1-.6.1-.9.1-2.6-.8-4.9-2.5-6.3-4.9zm9.8 18.1c0 .6.4 1 1 1h44c.6 0 1-.4 1-1s-.4-1-1-1h-44c-.5 0-1 .5-1 1zm0 10c0 .6.4 1 1 1h44c.6 0 1-.4 1-1s-.4-1-1-1h-44c-.5 0-1 .5-1 1zm38-5c0-.6-.4-1-1-1h-44c-.6 0-1 .4-1 1s.4 1 1 1h44c.6 0 1-.4 1-1z"/></svg>