<svg xmlns="http://www.w3.org/2000/svg" viewBox="0 0 59.7 36.7"><path d="M49.2 13.8c-.3 0-.6-.2-.8-.5-2.5-6.4-8.7-10.6-15.7-10.6C29 2.7 25.6 4 22.8 6c-.2.2-.5 0-.7-.2-1.5-2.6-3.9-4.6-6.8-5.6l-.5-.2c-.5-.1-.9.2-.9.7v.5c.1.4.1.8.1 1.1C14 8.8 8.8 14 2.3 14H.7c-.5 0-.8.4-.7.9l.2.5c1.1 3.5 3.7 6.2 6.9 7.5.2.1.3.4.2.6-1 1.4-1.5 3.1-1.5 4.9 0 4.7 3.8 8.5 8.5 8.5h34c6.3 0 11.5-5.2 11.5-11.5-.1-6.2-4.7-11.1-10.6-11.6zM2.9 16.5c-.1-.2 0-.5.3-.5 6.9-.4 12.5-6 12.9-12.9 0-.2.2-.4.4-.3 1.9 1 3.3 2.6 4.2 4.4.1.2.1.5-.1.7-2.9 3-4.7 7-4.8 11.4 0 .3-.3.5-.6.5s-.6-.1-.9-.1c-1.7 0-3.2.5-4.6 1.3-.3.2-.6.2-.9.1-2.5-.6-4.6-2.3-5.9-4.6zm45.3 18.2h-34c-3.6 0-6.5-2.9-6.5-6.5s2.9-6.5 6.5-6.5c.8 0 1.5.1 2.2.4l.6.2c.4.2.9-.2.8-.7l-.1-.6c-.1-.5-.1-1-.1-1.4 0-8.3 6.7-15 15-15 6.4 0 12 4 14.2 10 .2.6.7 1 1.3 1 5.2 0 9.5 4.3 9.5 9.5s-4.1 9.6-9.4 9.6z"/></svg>