<svg xmlns="http://www.w3.org/2000/svg" viewBox="0 0 54 50"><path d="M54 22.5c0-6-4.6-11-10.5-11.5-.3 0-.6-.2-.8-.5C40.1 4.2 34 0 27 0c-9.2 0-16.8 7.4-17 16.6 0 .3-.3.5-.6.5-.3-.1-.6-.1-.9-.1C3.8 17 0 20.8 0 25.5S3.8 34 8.5 34H14c.6 0 1-.4 1-1s-.4-1-1-1H8.5C4.9 32 2 29.1 2 25.5S4.9 19 8.5 19c.8 0 1.5.1 2.2.4l.6.2c.4.2.9-.2.8-.7l-.1-.6V17c0-8.3 6.7-15 15-15 6.4 0 12 4 14.2 10 .2.6.7 1 1.3 1 5.2 0 9.5 4.3 9.5 9.5 0 5.1-4 9.2-9 9.5-.5 0-.9.5-.9 1v.2c0 .5.4.8.8.8h.8c5.8-.7 10.3-5.6 10.3-11.5zM25.5 40.9c.4-.4.4-1 0-1.4-.4-.4-1-.4-1.4 0l-1.7 1.7c-.1.1-.4 0-.4-.1V39c0-.6-.4-1-1-1s-1 .4-1 1v2.1c0 .2-.2.3-.4.1l-1.7-1.7c-.4-.4-1-.4-1.4 0-.4.4-.4 1 0 1.4l1.7 1.7c.1.1 0 .4-.1.4H16c-.6 0-1 .4-1 1s.4 1 1 1h2.1c.2 0 .3.2.1.4l-1.7 1.7c-.4.4-.4 1 0 1.4.4.4 1 .4 1.4 0l1.7-1.7c.1-.1.4 0 .4.1V49c0 .6.4 1 1 1s1-.4 1-1v-2.1c0-.2.2-.3.4-.1l1.7 1.7c.4.4 1 .4 1.4 0 .4-.4.4-1 0-1.4l-1.7-1.7c-.1-.1 0-.4.1-.4H26c.6 0 1-.4 1-1s-.4-1-1-1h-2.1c-.2 0-.3-.2-.1-.4l1.7-1.7z"/><path d="M36.5 30.9c.4-.4.4-1 0-1.4-.4-.4-1-.4-1.4 0l-1.7 1.7c-.1.1-.4 0-.4-.1V29c0-.6-.4-1-1-1s-1 .4-1 1v2.1c0 .2-.2.3-.4.1l-1.7-1.7c-.4-.4-1-.4-1.4 0-.4.4-.4 1 0 1.4l1.7 1.7c.1.1 0 .4-.1.4H27c-.6 0-1 .4-1 1s.4 1 1 1h2.1c.2 0 .3.2.1.4l-1.7 1.7c-.4.4-.4 1 0 1.4.4.4 1 .4 1.4 0l1.7-1.7c.1-.1.4 0 .4.1V39c0 .6.4 1 1 1s1-.4 1-1v-2.1c0-.2.2-.3.4-.1l1.7 1.7c.4.4 1 .4 1.4 0 .4-.4.4-1 0-1.4l-1.7-1.7c-.1-.1 0-.4.1-.4H37c.6 0 1-.4 1-1s-.4-1-1-1h-2.1c-.2 0-.3-.2-.1-.4l1.7-1.7z"/></svg>