<svg xmlns="http://www.w3.org/2000/svg" viewBox="0 0 60 44"><path d="M0 27.9c0 .6.5 1.1 1.1 1.1h57.1c.6 0 1.1-.4 1.3-.9.3-1.2.5-2.4.5-3.6 0-6.6-5.2-12.1-11.7-12.5-.3 0-.6-.2-.7-.5C44.8 4.6 38.1 0 30.5 0 20.5 0 12.3 8 12 17.9c0 .2-.2.4-.5.4-.7-.1-1.3-.2-2-.2C4.3 18 0 22.3 0 27.5v.4zM9.5 20c1.1 0 2.1.2 3.1.7l.6.3c.4.2.9-.1.8-.6l-.1-.7c0-.4-.1-.8-.1-1.2C14 9.4 21.4 2 30.5 2c7 0 13.2 4.4 15.6 11 .2.6.7 1 1.3 1h.2C53.3 14 58 18.7 58 24.5c0 .7-.1 1.4-.2 2-.1.3-.3.5-.6.5H2.5c-.3 0-.5-.3-.4-.5.5-3.7 3.6-6.5 7.4-6.5zM8 33c0 .6.4 1 1 1h50c.6 0 1-.4 1-1s-.4-1-1-1H9c-.6 0-1 .4-1 1zm0 10c0 .6.4 1 1 1h50c.6 0 1-.4 1-1s-.4-1-1-1H9c-.6 0-1 .4-1 1zm44-5c0-.6-.4-1-1-1H1c-.6 0-1 .4-1 1s.4 1 1 1h50c.6 0 1-.4 1-1z"/></svg>