<svg xmlns="http://www.w3.org/2000/svg" viewBox="0 0 59.7 47.7"><path d="M49.2 13.8c-.3 0-.6-.2-.8-.5-2.5-6.4-8.7-10.6-15.7-10.6C29 2.7 25.6 4 22.8 6c-.2.2-.5 0-.7-.2-1.5-2.6-3.9-4.6-6.8-5.6l-.5-.2c-.5-.1-.9.2-.9.7v.5c.1.4.1.8.1 1.1C14 8.8 8.8 14 2.3 14H.7c-.5 0-.8.4-.7.9l.2.5c1.1 3.5 3.7 6.2 6.9 7.5.3.1.3.4.1.6-.8 1.1-1.3 2.4-1.4 3.8v1.1c0 4.7 3.8 8.5 8.5 8.5h21c2.5 0 4.5 2 4.5 4.5s-2 4.5-4.5 4.5c-2.1 0-3.9-1.1-4.4-3-.1-.5-.6-1-1.1-1-.5 0-1 .4-.9 1 .5 3 3.2 5 6.4 5 3.6 0 6.5-2.9 6.5-6.5s-2.9-6.5-6.5-6.5h-21c-2.6 0-4.8-1.5-5.9-3.7-.1-.2.1-.4.3-.3.2 0 .4.1.5.1h21.5c3.3 0 6-2.7 6-6s-2.7-6-6-6c-3 0-5.5 2.2-5.9 5.1-.1.5.4.9.9.9.6 0 1-.5 1.1-1 .4-1.7 2-3 3.9-3 2.2 0 4 1.8 4 4s-1.8 4-4 4H9.2c-.5 0-1-.3-1.3-.7-.2-.3-.2-.6-.1-.9.5-3 3.2-5.4 6.4-5.4.8 0 1.5.1 2.2.4l.6.2c.4.2.9-.2.8-.7l-.1-.6c-.1-.5-.1-1-.1-1.4 0-8.3 6.7-15 15-15 6.4 0 12 4 14.2 10 .2.6.7 1 1.3 1 5.2 0 9.5 4.3 9.5 9.5s-4.3 9.5-9.5 9.5h-2.5c-.6 0-1 .4-1 1s.4 1 1 1h2.5c6.3 0 11.5-5.2 11.5-11.5.1-6.2-4.5-11.1-10.4-11.6zm-33.4 5.5c0 .3-.3.5-.6.5s-.6-.1-.9-.1c-1.7 0-3.2.5-4.6 1.3-.3.2-.6.2-.9.1-2.5-.7-4.6-2.4-5.9-4.7-.1-.2 0-.5.3-.5 6.9-.4 12.5-6 12.9-12.9 0-.2.2-.4.4-.3 1.9 1 3.3 2.6 4.2 4.4.1.3 0 .6-.2.8-2.9 3.1-4.6 7.1-4.7 11.4z"/></svg>