<svg xmlns="http://www.w3.org/2000/svg" viewBox="-219 223 60 56"><path d="M-203.7 277.1c-.4.4-.4 1 0 1.4.4.4 1 .4 1.4 0l17-17c.4-.4.4-1 0-1.4-.4-.4-1-.4-1.4 0l-17 17zM-203.7 268.6c-.4.4-.4 1 0 1.4.4.4 1 .4 1.4 0l9.9-9.9c.4-.4.4-1 0-1.4-.4-.4-1-.4-1.4 0l-9.9 9.9z"/><path d="M-169.5 238c-.3 0-.6-.2-.8-.5-2.6-6.3-8.7-10.5-15.7-10.5-4.3 0-8.2 1.6-11.2 4.2-.2.2-.5.4-.8.3-.9-.3-2-.5-3-.5-5.5 0-10 4.5-10 10 0 1.6.4 3.1 1 4.4.1.2.1.5-.1.7-1.8 1.6-2.9 3.9-2.9 6.4 0 4.7 3.8 8.5 8.5 8.5h3.5c.6 0 1-.4 1-1s-.4-1-1-1h-3.5c-3.6 0-6.5-2.9-6.5-6.5s2.9-6.5 6.5-6.5c.8 0 1.5.1 2.2.4l.6.2c.4.2.9-.2.8-.7l-.1-.6V244c0-8.3 6.7-15 15-15 6.4 0 12 4 14.2 10 .2.6.7 1 1.3 1 5.2 0 9.5 4.3 9.5 9.5s-4.3 9.5-9.5 9.5h-.5c-.6 0-1 .4-1 1s.4 1 1 1h.5c6.3 0 11.5-5.2 11.5-11.5 0-6-4.6-11-10.5-11.5zm-33.5 5.6c0 .3-.3.5-.6.4-.3 0-.6-.1-.9-.1-1.1 0-2.2.2-3.1.6-.2.1-.5 0-.6-.3-.5-1-.8-2.1-.8-3.3 0-4.4 3.6-8 8-8 .5 0 .9 0 1.4.1.2 0 .3.3.1.5-2.1 2.9-3.4 6.4-3.5 10.1zM-200 224c0-.6-.4-1-1-1s-1 .4-1 1v4c0 .6.4 1 1 1s1-.4 1-1v-4zM-213 241c0-.6-.4-1-1-1h-4c-.6 0-1 .4-1 1s.4 1 1 1h4c.6 0 1-.4 1-1zM-209.5 232.5c.4-.4.4-1 0-1.4l-2.8-2.8c-.4-.4-1-.4-1.4 0-.4.4-.4 1 0 1.4l2.8 2.8c.4.4 1 .4 1.4 0z"/><path d="M-174.3 262.2c.3-.3.3-.8 0-1.1s-.8-.3-1.1 0l-1.4 1.4c-.1.1-.3 0-.3-.1v-1.7c0-.5-.3-.8-.8-.8s-.8.3-.8.8v1.7c0 .2-.2.2-.3.1l-1.4-1.4c-.3-.3-.8-.3-1.1 0-.3.3-.3.8 0 1.1l1.4 1.4c.1.1 0 .3-.1.3h-1.7c-.5 0-.8.3-.8.8s.3.8.8.8h1.7c.2 0 .2.2.1.3l-1.4 1.4c-.3.3-.3.8 0 1.1.3.3.8.3 1.1 0l1.4-1.4c.1-.1.3 0 .3.1v1.7c0 .5.3.8.8.8s.8-.3.8-.8V267c0-.2.2-.2.3-.1l1.4 1.4c.3.3.8.3 1.1 0 .3-.3.3-.8 0-1.1l-1.4-1.4c-.1-.1 0-.3.1-.3h1.7c.5 0 .8-.3.8-.8s-.3-.8-.8-.8h-1.7c-.2 0-.2-.2-.1-.3l1.4-1.4zM-181.8 271.7c.3-.3.3-.8 0-1.1s-.8-.3-1.1 0l-1.4 1.4c-.1.1-.3 0-.3-.1v-1.7c0-.5-.3-.8-.8-.8s-.8.3-.8.8v1.7c0 .2-.2.2-.3.1l-1.4-1.4c-.3-.3-.8-.3-1.1 0-.3.3-.3.8 0 1.1l1.4 1.4c.1.1 0 .3-.1.3h-1.7c-.5 0-.8.3-.8.8s.3.8.8.8h1.7c.2 0 .2.2.1.3l-1.4 1.4c-.3.3-.3.8 0 1.1.3.3.8.3 1.1 0l1.4-1.4c.1-.1.3 0 .3.1v1.7c0 .5.3.8.8.8s.8-.3.8-.8v-1.7c0-.2.2-.2.3-.1l1.4 1.4c.3.3.8.3 1.1 0s.3-.8 0-1.1l-1.4-1.4c-.1-.1 0-.3.1-.3h1.7c.5 0 .8-.3.8-.8s-.3-.8-.8-.8h-1.7c-.2 0-.2-.2-.1-.3l1.4-1.4z"/></svg>