<svg xmlns="http://www.w3.org/2000/svg" viewBox="0 0 60 48"><path d="M48.3 12c-.3 0-.6-.2-.7-.5C44.8 4.6 38.1 0 30.5 0 20.5 0 12.3 8 12 17.9c0 .2-.2.4-.5.4-.7-.1-1.3-.2-2-.2C4.8 18.1.9 21.5.1 26c0 0 0 .1-.1.1 0-.1 0 0 0 0v1.3C0 32.7 4.3 37 9.5 37h20c2.5 0 4.5 2 4.5 4.5S32 46 29.5 46c-2.1 0-3.9-1.1-4.4-3-.1-.5-.6-1-1.1-1-.5 0-1 .4-.9 1 .5 3 3.2 5 6.4 5 3.6 0 6.5-2.9 6.5-6.5S33.1 35 29.5 35h-20c-2.9 0-5.5-1.7-6.7-4.2-.1-.2 0-.4.2-.3.6.3 1.3.5 2 .5h20c3.3 0 6-2.7 6-6s-2.7-6-6-6c-3 0-5.5 2.2-5.9 5.1-.1.5.4.9.9.9.6 0 1-.5 1.1-1 .4-1.7 2-3 3.9-3 2.2 0 4 1.8 4 4s-1.8 4-4 4H5c-1.3 0-2.4-.8-2.8-1.9-.1-.3-.1-.7-.1-1 .7-3.5 3.8-6.1 7.4-6.1 1.1 0 2.1.2 3.1.7l.6.3c.4.2.9-.1.8-.6l-.1-.7c0-.4-.1-.8-.1-1.2C14 9.4 21.4 2 30.5 2c7 0 13.2 4.4 15.6 11 .2.6.7 1 1.3 1h.2C53.3 14 58 18.7 58 24.5S53.3 35 47.5 35H44c-.6 0-1 .4-1 1s.4 1 1 1h3.5C54.4 37 60 31.4 60 24.5c0-6.6-5.2-12.1-11.7-12.5z"/></svg>