<svg xmlns="http://www.w3.org/2000/svg" viewBox="0 0 60 60"><path d="M30 14c-8.8 0-16 7.2-16 16s7.2 16 16 16 16-7.2 16-16-7.2-16-16-16zm0 30c-7.7 0-14-6.3-14-14s6.3-14 14-14 14 6.3 14 14-6.3 14-14 14zm1-43c0-.6-.4-1-1-1s-1 .4-1 1v10c0 .6.4 1 1 1s1-.4 1-1V1zm-2 58c0 .6.4 1 1 1s1-.4 1-1V49c0-.6-.4-1-1-1s-1 .4-1 1v10zm20-30c-.6 0-1 .4-1 1s.4 1 1 1h10c.6 0 1-.4 1-1s-.4-1-1-1H49zm-37 1c0-.6-.4-1-1-1H1c-.6 0-1 .4-1 1s.4 1 1 1h10c.6 0 1-.4 1-1zM8.8 49.8c-.4.4-.4 1 0 1.4.4.4 1 .4 1.4 0l7.1-7.1c.4-.4.4-1 0-1.4-.4-.4-1-.4-1.4 0l-7.1 7.1zm8.5-32.5c.4-.4.4-1 0-1.4l-7.1-7.1c-.4-.4-1-.4-1.4 0-.4.4-.4 1 0 1.4l7.1 7.1c.3.4 1 .4 1.4 0zm25.4 25.4c-.4.4-.4 1 0 1.4l7.1 7.1c.4.4 1 .4 1.4 0 .4-.4.4-1 0-1.4l-7.1-7.1c-.3-.4-1-.4-1.4 0zm8.5-32.5c.4-.4.4-1 0-1.4-.4-.4-1-.4-1.4 0l-7.1 7.1c-.4.4-.4 1 0 1.4.4.4 1 .4 1.4 0l7.1-7.1z"/></svg>