<svg xmlns="http://www.w3.org/2000/svg" viewBox="0 0 57.7 55.7"><path d="M28.7 54.7c0 .6.4 1 1 1s1-.4 1-1v-24c0-.6-.4-1-1-1s-1 .4-1 1v24zm-6-6c0 .6.4 1 1 1s1-.4 1-1v-14c0-.6-.4-1-1-1s-1 .4-1 1v14zm12-5c0 .6.4 1 1 1s1-.4 1-1v-9c0-.6-.4-1-1-1s-1 .4-1 1v9z"/><path d="M47.2 14.8c-.3 0-.6-.2-.8-.5-2.5-6.4-8.7-10.6-15.7-10.6-2.9 0-5.6.7-8 2-.3.1-.6 0-.8-.2C20.4 3 18.1 1.1 15.2.2l-.4-.2c-.5-.1-.9.2-.9.7v.5c.1.4.1.8.1 1.1C14 8.8 8.8 14 2.3 14H.7c-.5 0-.8.4-.7.9l.2.5c1 3.3 3.3 5.8 6.3 7.2.2.1.2.4.1.5-1.7 1.6-2.8 3.8-2.8 6.3 0 4.7 3.8 8.5 8.5 8.5h6.5c.6 0 1-.4 1-1s-.4-1-1-1h-6.5c-3.6 0-6.5-2.9-6.5-6.5s2.9-6.5 6.5-6.5c.8 0 1.5.1 2.2.4l.6.2c.4.2.9-.2.8-.7l-.1-.6c-.1-.5-.1-1-.1-1.4 0-8.3 6.7-15 15-15 6.4 0 12 4 14.2 10 .2.6.7 1 1.3 1 5.2 0 9.5 4.3 9.5 9.5s-4.3 9.5-9.5 9.5h-5.5c-.6 0-1 .4-1 1s.4 1 1 1h5.5c6.3 0 11.5-5.2 11.5-11.5 0-6.1-4.6-11-10.5-11.5zm-33.4 5.6c0 .3-.3.5-.6.4-.3 0-.6-.1-.9-.1-.9 0-1.7.1-2.5.4-.3.1-.7.2-1.1 0-2.5-.8-4.5-2.4-5.8-4.7-.1-.2 0-.5.3-.5 6.9-.4 12.5-6 12.9-12.9 0-.2.2-.4.4-.3 1.7.9 3 2.2 3.9 3.8.2.3.1.6-.1.8-3.9 3.2-6.4 7.8-6.5 13.1z"/></svg>