<svg xmlns="http://www.w3.org/2000/svg" viewBox="0 0 60 46"><path d="M19 1c0-.6-.4-1-1-1s-1 .4-1 1v4c0 .6.4 1 1 1s1-.4 1-1V1zM6 18c0-.6-.4-1-1-1H1c-.6 0-1 .4-1 1s.4 1 1 1h4c.6 0 1-.4 1-1zm3.5-8.5c.4-.4.4-1 0-1.4L6.7 5.3c-.4-.4-1-.4-1.4 0-.4.4-.4 1 0 1.4l2.8 2.8c.4.4 1 .4 1.4 0zM9 22.4c.1.2.1.5-.1.7C7.1 24.7 6 27 6 29.5v.6c0 .5.5.9 1.1.9h51c.6 0 1.1-.3 1.3-.9.4-1.2.6-2.4.6-3.6 0-6-4.6-11-10.5-11.5-.3 0-.6-.2-.8-.5C46.1 8.2 40 4 33 4c-4.3 0-8.2 1.6-11.2 4.2-.2.2-.5.4-.8.3-.9-.3-2-.5-3-.5-5.5 0-10 4.5-10 10 0 1.6.4 3.1 1 4.4zM33 6c6.4 0 12 4 14.1 10 .2.6.7 1 1.4 1 5.2 0 9.5 4.3 9.5 9.5 0 .7-.1 1.4-.2 2-.1.3-.3.5-.6.5H8.5c-.3 0-.5-.2-.4-.5.5-3.1 3.2-5.5 6.4-5.5.8 0 1.5.1 2.2.4l.6.2c.4.2.9-.2.8-.7l-.1-.6V21c0-8.3 6.7-15 15-15zm-15 4c.5 0 1 0 1.4.1.2 0 .3.3.1.5-2.1 2.8-3.4 6.2-3.5 10 0 .3-.3.4-.6.4s-.6-.1-.9-.1c-1.1 0-2.2.2-3.1.6-.2.1-.5 0-.6-.3-.5-1-.8-2.1-.8-3.3 0-4.3 3.6-7.9 8-7.9zm-4 25c0 .6.4 1 1 1h44c.6 0 1-.4 1-1s-.4-1-1-1H15c-.6 0-1 .4-1 1zm0 10c0 .6.4 1 1 1h44c.6 0 1-.4 1-1s-.4-1-1-1H15c-.6 0-1 .4-1 1zm38-5c0-.6-.4-1-1-1H7c-.6 0-1 .4-1 1s.4 1 1 1h44c.6 0 1-.4 1-1z"/></svg>