<svg xmlns="http://www.w3.org/2000/svg" viewBox="0 0 54 51.3"><path d="M29.5 24c0-.3-.3-.4-.4-.2L17.6 40.2c-.2.3 0 .8.4.8h6.4c.3 0 .5.2.4.5L23.6 51c0 .2.3.4.4.1l10.4-16.3c.2-.4 0-.8-.5-.8h-5.3c-.3 0-.5-.2-.4-.5l1.3-9.5zm1.3 12c.2 0 .3.2.2.4l-4.1 6.4c-.1.1-.2 0-.2-.1L27 40c.1-.5-.3-1-.9-1h-4.8c-.2 0-.3-.2-.2-.4l5.2-7.3c.1-.1.2 0 .2.1L26 35c-.1.5.3 1 .9 1h3.9z"/><path d="M43.5 11c-.3 0-.6-.2-.8-.5C40.1 4.2 34 0 27 0c-9.2 0-16.8 7.4-17 16.6 0 .3-.3.5-.6.5-.3-.1-.6-.1-.9-.1C3.8 17 0 20.8 0 25.5S3.8 34 8.5 34H15c.6 0 1-.4 1-1s-.4-1-1-1H8.5C4.9 32 2 29.1 2 25.5S4.9 19 8.5 19c.8 0 1.5.1 2.2.4l.6.2c.4.2.9-.2.8-.7l-.1-.6V17c0-8.3 6.7-15 15-15 6.4 0 12 4 14.2 10 .2.6.7 1 1.3 1 5.2 0 9.5 4.3 9.5 9.5S47.7 32 42.5 32H37c-.6 0-1 .4-1 1s.4 1 1 1h5.5C48.8 34 54 28.8 54 22.5c0-6-4.6-11-10.5-11.5z"/></svg>