<svg xmlns="http://www.w3.org/2000/svg" viewBox="0 0 59.7 53.7"><path d="M59.7 26.2c0-6-4.6-11-10.5-11.5-.3 0-.6-.2-.8-.5-2.5-6.3-8.7-10.5-15.7-10.5-3.6 0-6.9 1.1-9.7 3-.2.1-.5.1-.6-.2-1.4-3-4-5.4-7.3-6.4l-.4-.1c-.5-.1-.9.2-.9.7v.5c.2.4.2.8.2 1.1C14 8.8 8.7 14 2.3 14c-.4 0-.7 0-1.1-.1H.8c-.5 0-.9.5-.7.9l.1.4c1.1 3.8 4 6.6 7.5 7.8.2.1.4.3.2.5C6.6 25 5.7 27 5.7 29.2c0 4.7 3.8 8.5 8.5 8.5h5.5c.6 0 1-.4 1-1s-.4-1-1-1h-5.5c-3.6 0-6.5-2.9-6.5-6.5s2.9-6.5 6.5-6.5c.8 0 1.5.1 2.2.4l.6.2c.4.2.9-.2.8-.7l-.1-.6c-.1-.5-.1-1-.1-1.4 0-8.3 6.7-15 15-15 6.4 0 12 4 14.2 10 .2.6.7 1 1.3 1 5.2 0 9.5 4.3 9.5 9.5 0 5.1-4 9.2-9 9.5-.5 0-.9.5-.9 1v.2c0 .5.4.8.8.8h.8c6-.6 10.4-5.5 10.4-11.4zm-43.9-5.9c0 .3-.3.5-.6.5s-.6-.1-.9-.1c-1.2 0-2.3.2-3.3.7-.3.1-.6.2-.9.1-3.1-.5-5.8-2.3-7.3-5.1-.1-.2.1-.4.3-.4C10 15.6 15.5 10 16 3.1c0-.2.3-.4.5-.3 2 1.2 3.5 3 4.4 5.2.1.2.1.5-.1.7-3 3-4.9 7-5 11.6zm15.4 24.3c.4-.4.4-1 0-1.4-.4-.4-1-.4-1.4 0L28.1 45c-.1.1-.4 0-.4-.1v-2.1c0-.6-.4-1-1-1s-1 .4-1 1v2.1c0 .2-.2.3-.4.1l-1.7-1.7c-.4-.4-1-.4-1.4 0-.4.4-.4 1 0 1.4l1.7 1.7c.1.1 0 .4-.1.4h-2.1c-.6 0-1 .4-1 1s.4 1 1 1h2.1c.2 0 .3.2.1.4l-1.7 1.7c-.4.4-.4 1 0 1.4.4.4 1 .4 1.4 0l1.7-1.7c.1-.1.4 0 .4.1v2.1c0 .6.4 1 1 1s1-.4 1-1v-2.1c0-.2.2-.3.4-.1l1.7 1.7c.4.4 1 .4 1.4 0 .4-.4.4-1 0-1.4l-1.7-1.7c-.1-.1 0-.4.1-.4h2.1c.6 0 1-.4 1-1s-.4-1-1-1h-2.1c-.2 0-.3-.2-.1-.4l1.7-1.8z"/><path d="M42.2 34.6c.4-.4.4-1 0-1.4-.4-.4-1-.4-1.4 0L39.1 35c-.1.1-.4 0-.4-.1v-2.1c0-.6-.4-1-1-1s-1 .4-1 1v2.1c0 .2-.2.3-.4.1l-1.7-1.7c-.4-.4-1-.4-1.4 0-.4.4-.4 1 0 1.4l1.7 1.7c.1.1 0 .4-.1.4h-2.1c-.6 0-1 .4-1 1s.4 1 1 1h2.1c.2 0 .3.2.1.4l-1.7 1.7c-.4.4-.4 1 0 1.4.4.4 1 .4 1.4 0l1.7-1.7c.1-.1.4 0 .4.1v2.1c0 .6.4 1 1 1s1-.4 1-1v-2.1c0-.2.2-.3.4-.1l1.7 1.7c.4.4 1 .4 1.4 0 .4-.4.4-1 0-1.4l-1.7-1.7c-.1-.1 0-.4.1-.4h2.1c.6 0 1-.4 1-1s-.4-1-1-1h-2.1c-.2 0-.3-.2-.1-.4l1.7-1.8z"/></svg>